<svg xmlns="http://www.w3.org/2000/svg" xmlns:xlink="http://www.w3.org/1999/xlink" width="78.9235305786133" height="75.16524505615234" viewBox="34 914.8347778320312 78.9235305786133 75.16524505615234"><g transform="matrix(1,0,0,1,34,914.8347778320312)"><g><g><path d="M 110.0849685668945 81.34088134765625 L 98.24645233154297 81.34088134765625 C 91.70765686035156 81.34088134765625 86.40793609619141 86.38821411132812 86.40793609619141 92.61566925048828 L 86.40793609619141 103.8904495239258 C 86.40793609619141 110.1178970336914 91.70765686035156 115.1652297973633 98.24645233154297 115.1652297973633 L 110.0849685668945 115.1652297973633 C 116.6238174438477 115.1652297973633 121.9235305786133 110.1178970336914 121.9235305786133 103.8904495239258 L 121.9235305786133 92.61566925048828 C 121.9235305786133 86.38821411132812 116.6238174438477 81.34088134765625 110.0849685668945 81.34088134765625 M 66.67705535888672 81.34088134765625 L 54.83852767944336 81.34088134765625 C 48.29971313476562 81.34088134765625 43 86.38821411132812 43 92.61566925048828 L 43 103.8904495239258 C 43 110.1178970336914 48.29971313476562 115.1652297973633 54.83852767944336 115.1652297973633 L 66.67705535888672 115.1652297973633 C 73.21587371826172 115.1652297973633 78.51559448242188 110.1178970336914 78.51559448242188 103.8904495239258 L 78.51559448242188 92.61566925048828 C 78.51559448242188 86.38821411132812 73.21587371826172 81.34088134765625 66.67705535888672 81.34088134765625 M 110.0849685668945 39.99998474121094 L 98.24645233154297 39.99998474121094 C 91.70765686035156 39.99998474121094 86.40793609619141 45.04733276367188 86.40793609619141 51.2747802734375 L 86.40793609619141 62.54956817626953 C 86.40793609619141 68.77700805664062 91.70765686035156 73.82435607910156 98.24645233154297 73.82435607910156 L 110.0849685668945 73.82435607910156 C 116.6238174438477 73.82435607910156 121.9235305786133 68.77700805664062 121.9235305786133 62.54956817626953 L 121.9235305786133 51.2747802734375 C 121.9235305786133 45.04733276367188 116.6238174438477 39.99998474121094 110.0849685668945 39.99998474121094 M 78.51559448242188 51.2747802734375 L 78.51559448242188 62.54956817626953 C 78.51559448242188 68.77700805664062 73.21587371826172 73.82435607910156 66.67705535888672 73.82435607910156 L 54.83852767944336 73.82435607910156 C 48.29971313476562 73.82435607910156 43 68.77700805664062 43 62.54956817626953 L 43 51.2747802734375 C 43 45.04733276367188 48.29971313476562 39.99998474121094 54.83852767944336 39.99998474121094 L 66.67705535888672 39.99998474121094 C 73.21587371826172 39.99998474121094 78.51559448242188 45.04733276367188 78.51559448242188 51.2747802734375" transform="matrix(1,0,0,1,-43,-39.99998474121094)" fill="#75a394" fill-rule="evenodd"/></g></g></g></svg>